<svg xmlns="http://www.w3.org/2000/svg" xmlns:xlink="http://www.w3.org/1999/xlink" width="400" zoomAndPan="magnify" viewBox="0 0 300 299.999988" height="400" preserveAspectRatio="xMidYMid meet" version="1.0"><defs><clipPath id="0e24dc30ce"><path d="M 8.566406 8.566406 L 291.296875 8.566406 L 291.296875 291.296875 L 8.566406 291.296875 Z M 8.566406 8.566406 " clip-rule="nonzero"/></clipPath></defs><g clip-path="url(#0e24dc30ce)"><path fill="#5497a7" d="M 246.539062 79.753906 C 246.539062 88.011719 239.839844 94.710938 231.578125 94.710938 L 68.285156 94.710938 C 60.023438 94.710938 53.328125 88.011719 53.328125 79.753906 C 53.328125 71.492188 60.023438 64.796875 68.285156 64.796875 L 231.578125 64.796875 C 239.839844 64.796875 246.539062 71.492188 246.539062 79.753906 Z M 246.539062 150.414062 C 246.539062 158.679688 239.839844 165.375 231.578125 165.375 L 68.285156 165.375 C 60.023438 165.375 53.328125 158.679688 53.328125 150.414062 L 53.328125 149.453125 C 53.328125 141.195312 60.023438 134.492188 68.285156 134.492188 L 231.578125 134.492188 C 239.839844 134.492188 246.539062 141.195312 246.539062 149.453125 Z M 246.539062 220.117188 C 246.539062 228.378906 239.839844 235.078125 231.578125 235.078125 L 68.285156 235.078125 C 60.023438 235.078125 53.328125 228.378906 53.328125 220.117188 L 53.328125 220.082031 C 53.328125 211.824219 60.023438 205.128906 68.285156 205.128906 L 231.578125 205.128906 C 239.839844 205.128906 246.539062 211.824219 246.539062 220.082031 Z M 259.066406 8.570312 L 40.796875 8.570312 C 22.996094 8.570312 8.566406 23 8.566406 40.800781 L 8.566406 259.070312 C 8.566406 276.867188 22.996094 291.296875 40.796875 291.296875 L 259.066406 291.296875 C 276.863281 291.296875 291.296875 276.867188 291.296875 259.070312 L 291.296875 40.800781 C 291.296875 23 276.863281 8.570312 259.066406 8.570312 " fill-opacity="1" fill-rule="nonzero"/></g></svg>