<svg xmlns="http://www.w3.org/2000/svg" xmlns:xlink="http://www.w3.org/1999/xlink" width="400" zoomAndPan="magnify" viewBox="0 0 300 299.999988" height="400" preserveAspectRatio="xMidYMid meet" version="1.0"><defs><clipPath id="3973c205f3"><path d="M 2.457031 2.457031 L 297.207031 2.457031 L 297.207031 297.207031 L 2.457031 297.207031 Z M 2.457031 2.457031 " clip-rule="nonzero"/></clipPath></defs><g clip-path="url(#3973c205f3)"><path fill="#5497a7" d="M 149.765625 29.03125 C 189.097656 29.03125 193.746094 29.160156 209.3125 29.871094 C 223.648438 30.515625 231.460938 32.90625 236.691406 34.972656 C 243.539062 37.621094 248.445312 40.851562 253.613281 46.015625 C 258.78125 51.183594 261.945312 56.089844 264.65625 62.9375 C 266.660156 68.101562 269.046875 75.917969 269.757812 90.320312 C 270.46875 105.882812 270.597656 110.535156 270.597656 149.863281 C 270.597656 189.195312 270.46875 193.84375 269.757812 209.40625 C 269.113281 223.746094 266.722656 231.558594 264.65625 236.789062 C 262.007812 243.636719 258.78125 248.542969 253.613281 253.710938 C 248.445312 258.878906 243.539062 262.042969 236.691406 264.753906 C 231.527344 266.757812 223.710938 269.144531 209.3125 269.855469 C 193.746094 270.566406 189.097656 270.695312 149.765625 270.695312 C 110.4375 270.695312 105.785156 270.566406 90.222656 269.855469 C 75.886719 269.210938 68.070312 266.820312 62.839844 264.753906 C 55.996094 262.105469 51.085938 258.878906 45.917969 253.710938 C 40.753906 248.542969 37.589844 243.636719 34.875 236.789062 C 32.875 231.625 30.484375 223.808594 29.773438 209.40625 C 29.0625 193.84375 28.933594 189.195312 28.933594 149.863281 C 28.933594 110.535156 29.0625 105.882812 29.773438 90.320312 C 30.421875 75.980469 32.808594 68.167969 34.875 62.9375 C 37.523438 56.089844 40.753906 51.183594 45.917969 46.015625 C 51.085938 40.851562 55.996094 37.683594 62.839844 34.972656 C 68.007812 32.972656 75.820312 30.582031 90.222656 29.871094 C 105.785156 29.160156 110.4375 29.03125 149.765625 29.03125 M 149.765625 2.488281 C 109.726562 2.488281 104.753906 2.683594 88.996094 3.394531 C 73.300781 4.101562 62.582031 6.621094 53.21875 10.238281 C 43.53125 13.984375 35.328125 19.019531 27.125 27.222656 C 18.988281 35.425781 13.953125 43.625 10.207031 53.3125 C 6.589844 62.679688 4.070312 73.398438 3.359375 89.09375 C 2.648438 104.785156 2.457031 109.824219 2.457031 149.800781 C 2.457031 189.839844 2.648438 194.8125 3.359375 210.570312 C 4.070312 226.261719 6.589844 236.984375 10.207031 246.347656 C 13.953125 256.035156 18.988281 264.238281 27.191406 272.4375 C 35.394531 280.640625 43.59375 285.679688 53.28125 289.425781 C 62.644531 293.039062 73.367188 295.558594 89.058594 296.269531 C 104.753906 296.980469 109.789062 297.175781 149.832031 297.175781 C 189.871094 297.175781 194.84375 296.980469 210.601562 296.269531 C 226.296875 295.558594 237.015625 293.039062 246.378906 289.425781 C 256.066406 285.679688 264.269531 280.640625 272.472656 272.4375 C 280.671875 264.238281 285.710938 256.035156 289.457031 246.347656 C 293.074219 236.984375 295.589844 226.261719 296.300781 210.570312 C 297.011719 194.875 297.207031 189.839844 297.207031 149.800781 C 297.207031 109.757812 297.011719 104.785156 296.300781 89.027344 C 295.589844 73.335938 293.074219 62.613281 289.457031 53.25 C 285.710938 43.5625 280.671875 35.359375 272.472656 27.160156 C 264.269531 18.957031 256.066406 13.917969 246.378906 10.171875 C 237.015625 6.558594 226.296875 4.039062 210.601562 3.328125 C 194.84375 2.683594 189.808594 2.488281 149.765625 2.488281 " fill-opacity="1" fill-rule="nonzero"/></g><path fill="#5497a7" d="M 149.765625 74.175781 C 107.980469 74.175781 74.140625 108.015625 74.140625 149.800781 C 74.140625 191.582031 108.046875 225.488281 149.832031 225.488281 C 191.617188 225.488281 225.519531 191.648438 225.519531 149.800781 C 225.457031 108.015625 191.550781 74.175781 149.765625 74.175781 M 149.765625 198.945312 C 122.640625 198.945312 100.683594 176.988281 100.683594 149.863281 C 100.683594 122.738281 122.640625 100.78125 149.765625 100.78125 C 176.890625 100.78125 198.847656 122.738281 198.847656 149.863281 C 198.914062 176.921875 176.890625 198.945312 149.765625 198.945312 " fill-opacity="1" fill-rule="nonzero"/><path fill="#5497a7" d="M 246.121094 71.203125 C 246.121094 80.953125 238.179688 88.898438 228.425781 88.898438 C 218.675781 88.898438 210.730469 80.953125 210.730469 71.203125 C 210.730469 61.453125 218.675781 53.507812 228.425781 53.507812 C 238.179688 53.507812 246.121094 61.386719 246.121094 71.203125 " fill-opacity="1" fill-rule="nonzero"/></svg>