<svg xmlns="http://www.w3.org/2000/svg" xmlns:xlink="http://www.w3.org/1999/xlink" width="400" zoomAndPan="magnify" viewBox="0 0 300 299.999988" height="400" preserveAspectRatio="xMidYMid meet" version="1.0"><defs><clipPath id="013a46f1fd"><path d="M 2.398438 36.480469 L 297.898438 36.480469 L 297.898438 149 L 2.398438 149 Z M 2.398438 36.480469 " clip-rule="nonzero"/></clipPath><clipPath id="ea462b9333"><path d="M 2.398438 86 L 297.898438 86 L 297.898438 263.730469 L 2.398438 263.730469 Z M 2.398438 86 " clip-rule="nonzero"/></clipPath></defs><g clip-path="url(#013a46f1fd)"><path fill="#5497a7" d="M 150.148438 148.21875 L 297.867188 59.59375 L 297.867188 59.207031 C 297.867188 58.460938 297.832031 57.71875 297.757812 56.976562 C 297.6875 56.238281 297.578125 55.503906 297.429688 54.773438 C 297.285156 54.042969 297.105469 53.320312 296.890625 52.609375 C 296.671875 51.898438 296.421875 51.195312 296.136719 50.507812 C 295.851562 49.820312 295.535156 49.148438 295.183594 48.492188 C 294.832031 47.835938 294.453125 47.199219 294.039062 46.582031 C 293.625 45.960938 293.183594 45.363281 292.710938 44.789062 C 292.238281 44.214844 291.738281 43.664062 291.210938 43.136719 C 290.683594 42.609375 290.132812 42.109375 289.558594 41.640625 C 288.984375 41.167969 288.386719 40.722656 287.769531 40.308594 C 287.148438 39.898438 286.511719 39.515625 285.855469 39.164062 C 285.199219 38.8125 284.527344 38.496094 283.839844 38.210938 C 283.152344 37.925781 282.453125 37.675781 281.738281 37.460938 C 281.027344 37.242188 280.304688 37.0625 279.574219 36.917969 C 278.84375 36.773438 278.109375 36.664062 277.371094 36.589844 C 276.628906 36.515625 275.886719 36.480469 275.140625 36.480469 L 25.152344 36.480469 C 24.410156 36.480469 23.667969 36.515625 22.925781 36.589844 C 22.1875 36.664062 21.449219 36.773438 20.71875 36.917969 C 19.992188 37.0625 19.269531 37.242188 18.558594 37.460938 C 17.84375 37.675781 17.144531 37.925781 16.457031 38.210938 C 15.769531 38.496094 15.097656 38.8125 14.441406 39.164062 C 13.785156 39.515625 13.148438 39.898438 12.527344 40.308594 C 11.910156 40.722656 11.3125 41.167969 10.738281 41.640625 C 10.160156 42.109375 9.609375 42.609375 9.085938 43.136719 C 8.558594 43.664062 8.058594 44.214844 7.585938 44.789062 C 7.113281 45.363281 6.671875 45.960938 6.257812 46.582031 C 5.84375 47.199219 5.460938 47.835938 5.113281 48.492188 C 4.761719 49.148438 4.441406 49.820312 4.15625 50.507812 C 3.875 51.195312 3.621094 51.898438 3.40625 52.609375 C 3.191406 53.320312 3.011719 54.042969 2.863281 54.773438 C 2.71875 55.503906 2.609375 56.238281 2.539062 56.976562 C 2.464844 57.71875 2.429688 58.460938 2.429688 59.207031 L 2.429688 59.59375 Z M 150.148438 148.21875 " fill-opacity="1" fill-rule="nonzero"/></g><g clip-path="url(#ea462b9333)"><path fill="#5497a7" d="M 156 171.207031 C 155.117188 171.738281 154.179688 172.140625 153.183594 172.414062 C 152.191406 172.691406 151.179688 172.828125 150.148438 172.828125 C 149.117188 172.828125 148.105469 172.691406 147.113281 172.414062 C 146.117188 172.140625 145.179688 171.738281 144.296875 171.207031 L 2.429688 86.089844 L 2.429688 241.003906 C 2.429688 241.75 2.464844 242.492188 2.539062 243.234375 C 2.609375 243.972656 2.71875 244.710938 2.863281 245.4375 C 3.011719 246.167969 3.191406 246.890625 3.40625 247.601562 C 3.621094 248.316406 3.875 249.015625 4.15625 249.703125 C 4.441406 250.390625 4.761719 251.0625 5.113281 251.71875 C 5.460938 252.375 5.84375 253.011719 6.257812 253.632812 C 6.671875 254.25 7.113281 254.847656 7.585938 255.421875 C 8.058594 255.996094 8.558594 256.546875 9.085938 257.074219 C 9.609375 257.601562 10.160156 258.101562 10.738281 258.574219 C 11.3125 259.042969 11.910156 259.488281 12.527344 259.902344 C 13.148438 260.3125 13.785156 260.695312 14.441406 261.046875 C 15.097656 261.398438 15.769531 261.714844 16.457031 262 C 17.144531 262.285156 17.84375 262.535156 18.558594 262.753906 C 19.269531 262.96875 19.992188 263.148438 20.71875 263.292969 C 21.449219 263.4375 22.1875 263.546875 22.925781 263.621094 C 23.667969 263.695312 24.410156 263.730469 25.152344 263.730469 L 275.140625 263.730469 C 275.886719 263.730469 276.628906 263.695312 277.371094 263.621094 C 278.109375 263.546875 278.84375 263.4375 279.574219 263.292969 C 280.304688 263.148438 281.027344 262.96875 281.738281 262.753906 C 282.453125 262.535156 283.152344 262.285156 283.839844 262 C 284.527344 261.714844 285.199219 261.398438 285.855469 261.046875 C 286.511719 260.695312 287.148438 260.3125 287.769531 259.902344 C 288.386719 259.488281 288.984375 259.042969 289.558594 258.574219 C 290.132812 258.101562 290.683594 257.601562 291.210938 257.074219 C 291.738281 256.546875 292.238281 255.996094 292.710938 255.421875 C 293.183594 254.847656 293.625 254.25 294.039062 253.632812 C 294.453125 253.011719 294.832031 252.375 295.183594 251.71875 C 295.535156 251.0625 295.851562 250.390625 296.136719 249.703125 C 296.421875 249.015625 296.671875 248.316406 296.890625 247.601562 C 297.105469 246.890625 297.285156 246.167969 297.429688 245.4375 C 297.578125 244.710938 297.6875 243.972656 297.757812 243.234375 C 297.832031 242.492188 297.867188 241.75 297.867188 241.003906 L 297.867188 86.089844 Z M 156 171.207031 " fill-opacity="1" fill-rule="nonzero"/></g></svg>