<svg xmlns="http://www.w3.org/2000/svg" xmlns:xlink="http://www.w3.org/1999/xlink" width="400" zoomAndPan="magnify" viewBox="0 0 300 299.999988" height="400" preserveAspectRatio="xMidYMid meet" version="1.0"><defs><clipPath id="02f995b433"><path d="M 5.777344 5.777344 L 294.527344 5.777344 L 294.527344 294.527344 L 5.777344 294.527344 Z M 5.777344 5.777344 " clip-rule="nonzero"/></clipPath></defs><g clip-path="url(#02f995b433)"><path fill="#5497a7" d="M 63.929688 130.824219 C 87.03125 176.222656 124.167969 213.359375 169.644531 236.457031 L 204.9375 201.085938 C 209.347656 196.675781 215.683594 195.390625 221.21875 197.15625 C 239.183594 203.089844 258.515625 206.300781 278.488281 206.300781 C 287.390625 206.300781 294.527344 213.4375 294.527344 222.339844 L 294.527344 278.488281 C 294.527344 287.390625 287.390625 294.527344 278.488281 294.527344 C 127.855469 294.527344 5.777344 172.453125 5.777344 21.820312 C 5.777344 12.917969 12.996094 5.777344 21.820312 5.777344 L 77.964844 5.777344 C 86.871094 5.777344 94.007812 12.917969 94.007812 21.820312 C 94.007812 41.792969 97.214844 61.121094 103.152344 79.089844 C 104.917969 84.625 103.632812 90.960938 99.222656 95.371094 Z M 63.929688 130.824219 " fill-opacity="1" fill-rule="nonzero"/></g></svg>